# xmcd CD database file
#
# Track frame offsets:
#	150
#	2686
#	5178
#	7777
#	10747
#	13458
#	16382
#	19085
#	24231
#	26746
#	30260
#	32982
#	35892
#	39402
#	42604
#	47804
#	50936
#	54107
#	57059
#	59871
#	62668
#	65275
#	71046
#	83989
#	102916
#
# Disc length: 1502 seconds
#
# Revision: 1
# Processed by: cddbd v1.5.2PL0 Copyright (c) Steve Scherf et al.
# Submitted via: CDex 1.51
#
DISCID=4d05dc19
DTITLE=Kirby Shaw - Vocal Jazz Style
DYEAR=1987
DGENRE=Jazz
TTITLE0=Basic Swing
TTITLE1=Tenuto and Staccato #1
TTITLE2=Tenuto and Staccato #2
TTITLE3=Horizontal Accent
TTITLE4=Vertical Accent
TTITLE5=Breath Accent
TTITLE6=Forte piano, crescendo
TTITLE7=Combination Exercise A
TTITLE8=Ghost
TTITLE9=Ascending Smear
TTITLE10=Fall-off
TTITLE11=Ascending Smear, Fall-off
TTITLE12=Descending Smear
TTITLE13=Ascending Glissando
TTITLE14=Combination Exercise B
TTITLE15=Descending Glissando
TTITLE16=Doit
TTITLE17=Plot
TTITLE18=Flip
TTITLE19=Dip
TTITLE20=Shake
TTITLE21=Combination Exercise C
TTITLE22=Brand New Attitude
TTITLE23=Dcotor Doom
TTITLE24=Swing Time!
EXTD=YEAR: 1987
EXTT0=
EXTT1=
EXTT2=
EXTT3=
EXTT4=
EXTT5=
EXTT6=
EXTT7=
EXTT8=
EXTT9=
EXTT10=
EXTT11=
EXTT12=
EXTT13=
EXTT14=
EXTT15=
EXTT16=
EXTT17=
EXTT18=
EXTT19=
EXTT20=
EXTT21=
EXTT22=
EXTT23=
EXTT24=
PLAYORDER=
